<?xml version="1.0" encoding="UTF-8" standalone="no"?>
<svg
   xmlns:dc="http://purl.org/dc/elements/1.1/"
   xmlns:cc="http://creativecommons.org/ns#"
   xmlns:rdf="http://www.w3.org/1999/02/22-rdf-syntax-ns#"
   xmlns:svg="http://www.w3.org/2000/svg"
   xmlns="http://www.w3.org/2000/svg"
   xmlns:sodipodi="http://sodipodi.sourceforge.net/DTD/sodipodi-0.dtd"
   xmlns:inkscape="http://www.inkscape.org/namespaces/inkscape"
   width="126.51584mm"
   height="35.202461mm"
   viewBox="0 0 126.51584 35.202461"
   version="1.1"
   id="svg8"
   inkscape:version="1.0.2-2 (e86c870879, 2021-01-15)"
   sodipodi:docname="Complyt_w.svg">
  <defs
     id="defs2">
    <clipPath
       clipPathUnits="userSpaceOnUse"
       id="clipPath853">
      <path
         d="m 88.3542,151.3071 c 0,-35.7222 28.9613,-64.6832 64.6835,-64.6832 35.7313,0 64.6923,28.961 64.6923,64.6832 v 0 c 0,35.7262 -28.961,64.6886 -64.6923,64.6886 v 0 c -35.7222,0 -64.6835,-28.9624 -64.6835,-64.6886"
         clip-rule="evenodd"
         id="path851" />
    </clipPath>
    <linearGradient
       x1="94.459999"
       y1="81.5"
       x2="211.62"
       y2="221.12"
       gradientUnits="userSpaceOnUse"
       spreadMethod="pad"
       id="linearGradient859">
      <stop
         style="stop-opacity:1;stop-color:#022360"
         offset="0"
         id="stop855" />
      <stop
         style="stop-opacity:1;stop-color:#0077c0"
         offset="1"
         id="stop857" />
    </linearGradient>
    <clipPath
       clipPathUnits="userSpaceOnUse"
       id="clipPath853-3">
      <path
         d="m 88.3542,151.3071 c 0,-35.7222 28.9613,-64.6832 64.6835,-64.6832 35.7313,0 64.6923,28.961 64.6923,64.6832 v 0 c 0,35.7262 -28.961,64.6886 -64.6923,64.6886 v 0 c -35.7222,0 -64.6835,-28.9624 -64.6835,-64.6886"
         clip-rule="evenodd"
         id="path851-9" />
    </clipPath>
    <linearGradient
       x1="94.459999"
       y1="81.5"
       x2="211.62"
       y2="221.12"
       gradientUnits="userSpaceOnUse"
       spreadMethod="pad"
       id="linearGradient859-4">
      <stop
         style="stop-opacity:1;stop-color:#022360"
         offset="0"
         id="stop855-8" />
      <stop
         style="stop-opacity:1;stop-color:#0077c0"
         offset="1"
         id="stop857-0" />
    </linearGradient>
  </defs>
  <sodipodi:namedview
     id="base"
     pagecolor="#ffffff"
     bordercolor="#666666"
     borderopacity="1.0"
     inkscape:pageopacity="0.0"
     inkscape:pageshadow="2"
     inkscape:zoom="0.32269393"
     inkscape:cx="907.84809"
     inkscape:cy="349.07256"
     inkscape:document-units="mm"
     inkscape:current-layer="layer1"
     inkscape:document-rotation="0"
     showgrid="false"
     inkscape:window-width="1920"
     inkscape:window-height="992"
     inkscape:window-x="-8"
     inkscape:window-y="-8"
     inkscape:window-maximized="1"
     inkscape:pagecheckerboard="false"
     borderlayer="false"
     fit-margin-top="0"
     fit-margin-left="0"
     fit-margin-right="0"
     fit-margin-bottom="0" />
  <metadata
     id="metadata5">
    <rdf:RDF>
      <cc:Work
         rdf:about="">
        <dc:format>image/svg+xml</dc:format>
        <dc:type
           rdf:resource="http://purl.org/dc/dcmitype/StillImage" />
        <dc:title></dc:title>
      </cc:Work>
    </rdf:RDF>
  </metadata>
  <g
     inkscape:label="Layer 1"
     inkscape:groupmode="layer"
     id="layer1"
     transform="translate(-38.412212,-88.988427)">
    <g
       id="g841"
       inkscape:label="Complyt"
       transform="matrix(0.16297761,0,0,-0.16297761,38.412212,124.19089)">
      <path
         d="m 182.3913,91.1937 c 0,50.3671 -40.8305,91.1936 -91.1925,91.1936 C 40.8317,182.3873 0,141.5608 0,91.1937 0,40.8266 40.8317,0 91.1988,0 c 50.362,0 91.1925,40.8266 91.1925,91.1937 z m -36.4756,0 c 0,-30.2213 -24.5007,-54.7169 -54.7169,-54.7169 -30.2213,0 -54.7166,24.4956 -54.7166,54.7169 0,30.2213 24.4953,54.7166 54.7166,54.7166 30.2162,0 54.7169,-24.4953 54.7169,-54.7166"
         style="fill:#00b6b9;fill-opacity:1;fill-rule:nonzero;stroke:none"
         id="path843" />
      <path
         d="m 771.213,89.3024 c 1.4,0 2.5968,0.4102 3.5821,1.2365 0.991,0.8206 1.4823,1.9763 1.4823,3.4571 0,1.4012 -0.4913,2.535 -1.4823,3.3968 -0.9853,0.8645 -2.1821,1.2968 -3.5821,1.2968 h -57.4444 c -1.4012,0 -2.5775,-0.4323 -3.5186,-1.2968 -0.9516,-0.8618 -1.425,-1.9956 -1.425,-3.3968 0,-1.4014 0.4734,-2.5336 1.425,-3.3953 0.9411,-0.866 2.1174,-1.2983 3.5186,-1.2983 h 23.4697 V 17.2783 c 0,-1.4012 0.4972,-2.5923 1.4823,-3.5833 0.9895,-0.9867 2.2263,-1.4822 3.7085,-1.4822 1.5616,0 2.8409,0.4955 3.8277,1.4822 0.9909,0.991 1.485,2.1821 1.485,3.5833 V 89.3024 Z M 692.2706,96.7147 668.717,63.5681 644.4621,96.8383 c -1.0721,1.5616 -2.4276,2.3482 -4.0745,2.3482 -1.156,0 -2.3072,-0.4793 -3.4614,-1.4233 -1.1529,-0.947 -1.728,-2.1203 -1.728,-3.5217 0,-0.5749 0.1029,-1.1733 0.3089,-1.7881 0.2044,-0.616 0.5573,-1.2586 1.0483,-1.9145 L 663.4868,54.1528 V 17.2783 c 0,-1.4012 0.4734,-2.5923 1.4247,-3.5833 0.9456,-0.9867 2.1586,-1.4822 3.6394,-1.4822 1.3175,0 2.4497,0.4955 3.4013,1.4822 0.9468,0.991 1.4173,2.1821 1.4173,3.5833 v 36.0893 l 27.0593,37.6668 c 0.3248,0.4912 0.5513,1.0029 0.6777,1.5426 0.125,0.5309 0.1868,1.0485 0.1868,1.544 0,1.3176 -0.4765,2.4894 -1.4233,3.5201 -0.9456,1.0278 -2.1189,1.5454 -3.5203,1.5454 -1.6455,0 -3.007,-0.8263 -4.0791,-2.4718 z M 596.9018,21.9722 v 71.7783 c 0,1.3969 -0.4955,2.5702 -1.4819,3.5215 -0.9899,0.9456 -2.1853,1.4176 -3.5836,1.4176 -1.4836,0 -2.7159,-0.472 -3.7071,-1.4176 -0.9865,-0.9513 -1.4806,-2.1246 -1.4806,-3.5215 V 17.2783 c 0,-1.4012 0.4734,-2.5923 1.4174,-3.5833 0.947,-0.9867 2.1206,-1.4822 3.5217,-1.4822 h 42.7459 c 1.4015,0 2.5968,0.4513 3.5836,1.3615 0.9895,0.9014 1.4808,2.0571 1.4808,3.4571 0,1.3983 -0.4913,2.5702 -1.4808,3.5218 -0.9868,0.9453 -2.1821,1.419 -3.5836,1.419 z m -79.3114,76.7174 c -1.4011,0 -2.5747,-0.472 -3.5203,-1.4176 -0.9513,-0.9513 -1.4233,-2.1246 -1.4233,-3.5215 V 17.2783 c 0,-1.4012 0.4337,-2.5923 1.2986,-3.5833 0.8645,-0.9867 2.0392,-1.4822 3.52,-1.4822 1.4015,0 2.5529,0.4955 3.4572,1.4822 0.907,0.991 1.3614,2.1821 1.3614,3.5833 v 29.6501 h 24.211 c 4.5289,0 8.6066,1.15 12.2341,3.4571 3.6246,2.3057 6.4834,5.4392 8.5861,9.3932 2.0968,3.9526 3.1496,8.3565 3.1496,13.2163 0,4.9436 -1.0528,9.3478 -3.1496,13.2207 -2.1027,3.8674 -4.9615,6.9157 -8.5861,9.1418 -3.6275,2.2221 -7.7052,3.3321 -12.2341,3.3321 z m 4.6936,-42.249 v 32.7368 h 24.211 c 2.7219,0 5.1083,-0.722 7.1669,-2.1586 2.0616,-1.4425 3.7071,-3.3616 4.9422,-5.7481 1.2367,-2.3865 1.8527,-5.148 1.8527,-8.2757 0,-2.9642 -0.616,-5.7257 -1.8527,-8.2772 -1.2351,-2.5526 -2.8806,-4.57 -4.9422,-6.0551 -2.0586,-1.4822 -4.445,-2.2221 -7.1669,-2.2221 z M 413.9079,97.272 c -0.9457,-1.0307 -1.419,-2.2042 -1.419,-3.5215 V 17.2783 c 0,-1.4012 0.4337,-2.5923 1.2982,-3.5833 0.8618,-0.9867 1.9956,-1.4822 3.3968,-1.4822 1.4,0 2.5512,0.4955 3.4571,1.4822 0.9057,0.991 1.3615,2.1821 1.3615,3.5833 V 79.74 l 26.1918,-40.3489 c 0.491,-0.5752 1.1101,-1.0707 1.8511,-1.4808 0.7398,-0.4147 1.4808,-0.6163 2.222,-0.6163 0.741,0 1.4644,0.2016 2.1629,0.6163 0.697,0.4101 1.2954,0.9056 1.7912,1.4808 L 482.2866,79.043 V 17.2783 c 0,-1.4012 0.4969,-2.5923 1.4865,-3.5833 0.9867,-0.9867 2.2218,-1.4822 3.704,-1.4822 1.4809,0 2.7173,0.4955 3.7086,1.4822 0.985,0.991 1.4808,2.1821 1.4808,3.5833 v 76.4722 c 0,1.482 -0.4958,2.6731 -1.4808,3.5833 -0.9913,0.9028 -2.1438,1.3969 -3.4645,1.4808 -1.7263,0.0822 -3.1275,-0.6602 -4.1967,-2.2249 L 452.5526,50.3634 422.0025,96.5897 c -0.4955,0.6605 -1.1733,1.1942 -2.0395,1.6058 -0.866,0.4147 -1.6688,0.6191 -2.4101,0.6191 -1.4805,0 -2.6997,-0.5162 -3.645,-1.5426 z M 391.3174,73.1818 c -2.0573,5.3906 -4.9393,10.0873 -8.6479,14.0825 -3.7069,3.9923 -8.1108,7.1022 -13.2162,9.3254 -5.1084,2.2249 -10.6682,3.3381 -16.6794,3.3381 -6.095,0 -11.6753,-1.1132 -16.7394,-3.3381 -5.0658,-2.2232 -9.4521,-5.3331 -13.159,-9.3254 -3.7043,-3.9952 -6.5906,-8.6919 -8.6462,-14.0825 -2.0588,-5.3949 -3.0895,-11.3063 -3.0895,-17.7276 0,-6.3451 1.0307,-12.2122 3.0895,-17.6057 2.0556,-5.3966 4.9419,-10.1109 8.6462,-14.1443 3.7069,-4.0394 8.0932,-7.1669 13.159,-9.3887 5.0641,-2.2263 10.6444,-3.3381 16.7394,-3.3381 6.0112,0 11.571,1.1118 16.6794,3.3381 5.1054,2.2218 9.5093,5.3493 13.2162,9.3887 3.7086,4.0334 6.5906,8.7477 8.6479,14.1443 2.0557,5.3935 3.0864,11.2606 3.0864,17.6057 0,6.4213 -1.0307,12.3327 -3.0864,17.7276 z M 379.7654,37.603 c -2.6776,-5.235 -6.3184,-9.3317 -10.9312,-12.293 -4.6143,-2.9673 -9.9681,-4.4496 -16.0603,-4.4496 -6.095,0 -11.4709,1.4823 -16.1203,4.4496 -4.6585,2.9613 -8.2979,7.058 -10.9358,12.293 -2.6365,5.2288 -3.9541,11.1767 -3.9541,17.8512 0,6.7507 1.3176,12.7207 3.9541,17.9115 2.6379,5.1877 6.2773,9.2668 10.9358,12.2281 4.6494,2.9673 10.0253,4.4496 16.1203,4.4496 6.0922,0 11.446,-1.4823 16.0603,-4.4496 4.6128,-2.9613 8.2536,-7.0404 10.9312,-12.2281 2.6762,-5.1908 4.0159,-11.1608 4.0159,-17.9115 0,-6.6745 -1.3397,-12.6224 -4.0159,-17.8512 z M 286.2026,97.95 c -4.0791,1.1515 -8.2582,1.7323 -12.5371,1.7323 -6.1804,0 -11.924,-1.1163 -17.2381,-3.3381 -5.3084,-2.2232 -9.9637,-5.3098 -13.9561,-9.2639 -3.9982,-3.9537 -7.1036,-8.6122 -9.3313,-13.9603 -2.2218,-5.3552 -3.3322,-11.2445 -3.3322,-17.6658 0,-6.8406 1.1736,-12.9929 3.5204,-18.4734 2.3468,-5.4729 5.5361,-10.1503 9.5754,-14.0176 4.0334,-3.8733 8.6874,-6.8406 13.9575,-8.8977 5.2685,-2.0571 10.8726,-3.0881 16.8044,-3.0881 2.882,0 5.7421,0.2912 8.583,0.8663 2.8423,0.5749 5.5789,1.3777 8.2154,2.41 2.6379,1.0248 4.9833,2.1586 7.0418,3.3937 1.3147,0.6602 2.0999,1.7087 2.3454,3.1512 0.25,1.4412 -0.1205,2.8188 -1.1101,4.1409 -0.8206,0.985 -1.813,1.5602 -2.963,1.7263 -1.1557,0.1647 -2.3071,-0.0397 -3.4586,-0.6163 -2.8012,-1.7305 -5.7685,-3.0466 -8.8962,-3.9526 -3.1334,-0.9071 -6.3845,-1.36 -9.7577,-1.36 -4.6953,0 -9.042,0.7837 -13.034,2.3453 -3.9983,1.5662 -7.4965,3.8512 -10.5035,6.8582 -3.007,3.007 -5.3731,6.6495 -7.1039,10.9312 -1.7277,4.2849 -2.5923,9.1435 -2.5923,14.5826 0,5.1052 0.8206,9.7577 2.4718,13.9575 1.647,4.2023 3.9541,7.8256 6.9154,10.8723 2.9676,3.0438 6.4659,5.4127 10.4993,7.1039 4.0391,1.6866 8.4815,2.5305 13.3472,2.5305 3.4568,0 6.7493,-0.4734 9.8827,-1.4191 3.1277,-0.9453 6.0494,-2.2453 8.7712,-3.8908 1.1515,-0.5808 2.3029,-0.8249 3.4586,-0.741 1.15,0.0808 2.0968,0.6574 2.8409,1.7263 0.9867,1.2382 1.3748,2.5968 1.1749,4.0791 -0.2103,1.4822 -1.0131,2.5923 -2.41,3.3364 -3.3778,2.1381 -7.1039,3.7848 -11.1812,4.9407"
         style="fill:#ffffff;fill-opacity:1;fill-rule:nonzero;stroke:none"
         id="path845" />
      <g
         id="g847">
        <g
           id="g849"
           clip-path="url(#clipPath853-3)">
          <path
             d="m 88.3542,151.3071 c 0,-35.7222 28.9613,-64.6832 64.6835,-64.6832 35.7313,0 64.6923,28.961 64.6923,64.6832 v 0 c 0,35.7262 -28.961,64.6886 -64.6923,64.6886 v 0 c -35.7222,0 -64.6835,-28.9624 -64.6835,-64.6886"
             style="fill:url(#linearGradient859-4);fill-rule:evenodd;stroke:none"
             id="path861" />
        </g>
      </g>
      <path
         d="m 96.1682,182.137 c -4.9796,-9.1649 -7.8038,-19.6639 -7.8038,-30.8273 0,-1.8655 0.1202,-3.7032 0.2758,-5.5284 0.8524,0.0405 1.696,0.129 2.5574,0.129 30.2199,0 54.7166,-24.4953 54.7166,-54.7166 0,-1.3927 -0.1074,-2.7536 -0.2097,-4.1182 2.4145,-0.2721 4.8543,-0.4465 7.3358,-0.4465 10.5295,0 20.4392,2.575 29.2257,7.0359 -1.2761,47.543 -38.8814,85.9195 -86.0978,88.4721"
         style="fill:#045e9c;fill-opacity:1;fill-rule:nonzero;stroke:none"
         id="path863" />
    </g>
  </g>
</svg>
